<?xml version="1.0" standalone="no"?>
<!DOCTYPE svg PUBLIC "-//W3C//DTD SVG 20010904//EN"
 "http://www.w3.org/TR/2001/REC-SVG-20010904/DTD/svg10.dtd">
<svg version="1.0" xmlns="http://www.w3.org/2000/svg"
 width="2400.000000pt" height="762.000000pt" viewBox="0 0 2400.000000 762.000000"
 preserveAspectRatio="xMidYMid meet">

<g transform="translate(0.000000,762.000000) scale(0.100000,-0.100000)"
fill="#000000" stroke="none">
<path d="M3782 6669 c-894 -51 -1722 -609 -2166 -1459 -213 -409 -321 -833
-333 -1310 -8 -331 17 -564 92 -854 132 -515 382 -954 755 -1327 286 -286 573
-473 935 -609 836 -314 1752 -160 2465 413 125 101 322 297 422 422 624 779
810 1866 486 2838 -142 425 -377 807 -687 1117 -158 158 -258 240 -431 355
-459 304 -982 445 -1538 414z m398 -64 c315 -37 533 -99 815 -235 244 -118
485 -293 697 -507 439 -442 717 -1025 800 -1676 20 -157 17 -621 -5 -772 -88
-596 -323 -1107 -707 -1540 -102 -115 -285 -285 -307 -285 -46 0 -184 96 -256
177 -68 77 -252 183 -317 183 -34 0 -120 210 -93 229 11 7 54 158 54 186 0 11
8 27 19 35 11 8 21 29 23 46 2 17 9 37 15 45 30 36 82 120 82 134 0 8 5 15 10
15 6 0 10 6 10 14 0 8 7 16 15 20 8 3 15 12 15 21 0 8 5 15 10 15 6 0 10 9 10
20 0 11 4 20 8 20 5 0 14 16 22 35 8 19 17 35 22 35 4 0 5 7 2 14 -3 8 4 25
16 38 11 12 23 34 27 48 3 14 9 30 13 35 4 6 11 26 15 45 4 19 19 44 32 56 17
14 22 26 17 39 -5 13 -4 16 4 11 7 -4 12 -1 12 9 0 8 6 18 14 21 8 3 16 19 20
36 4 20 10 28 20 25 10 -4 16 5 20 27 4 18 15 41 26 51 11 10 20 24 20 32 0 7
9 13 20 13 15 0 20 7 20 25 0 14 -5 25 -11 25 -5 0 -8 4 -4 10 3 5 12 7 19 4
7 -3 19 2 26 11 10 12 10 15 -1 15 -9 0 -15 13 -17 36 -2 29 1 35 13 30 20 -7
19 4 -2 20 -10 7 -13 14 -6 14 12 0 6 37 -10 58 -7 8 -5 12 6 12 8 0 17 -6 20
-12 2 -7 7 -10 11 -7 12 11 -6 89 -20 89 -18 0 -27 17 -30 56 -3 37 14 58 22
27 8 -27 60 -30 74 -3 6 11 16 18 22 14 6 -4 8 1 3 15 -8 27 6 27 64 -3 25
-12 72 -31 104 -41 49 -16 60 -17 67 -5 10 17 4 30 -14 30 -23 0 -100 38 -126
62 -14 13 -37 29 -52 35 -31 14 -40 46 -10 37 10 -4 13 -3 6 3 -40 30 -43 95
-9 178 13 33 27 80 31 105 8 56 16 65 72 90 25 12 53 27 61 36 9 8 25 21 36
29 19 13 19 15 3 27 -15 12 -15 16 -3 46 8 19 23 36 32 39 49 13 69 144 34
225 -10 24 -22 64 -25 88 -8 52 -25 100 -36 100 -4 0 -15 17 -26 38 -10 20
-25 45 -33 55 -12 14 -12 21 -1 42 11 21 11 27 -3 43 -10 10 -17 24 -17 31 0
7 -6 19 -14 26 -10 11 -11 27 -4 71 5 32 10 60 12 62 7 7 -24 94 -44 122 -21
30 -27 55 -10 45 17 -11 63 -16 85 -11 30 8 50 68 33 98 -13 23 -13 23 -16 -9
-4 -38 -22 -45 -22 -8 0 17 -6 25 -17 26 -14 0 -13 2 5 9 27 11 27 12 -2 39
l-23 22 4 -25 c10 -49 -22 -40 -85 23 -56 55 -59 61 -39 66 34 7 60 2 81 -17
27 -24 43 -23 21 2 -20 22 -75 43 -102 39 -25 -4 -100 37 -107 58 -11 33 -105
122 -155 148 -28 14 -71 28 -96 32 -48 6 -135 -13 -135 -29 0 -6 -11 -7 -24
-4 -14 3 -28 1 -32 -5 -15 -25 -149 16 -175 54 -4 5 -12 6 -18 3 -6 -4 -11 -3
-11 2 0 5 -14 12 -30 16 -17 3 -56 18 -87 32 -31 15 -75 33 -97 39 -38 11 -41
15 -40 46 1 19 5 45 10 59 7 22 6 23 -7 10 -8 -8 -20 -28 -27 -45 -13 -27 -15
-28 -26 -12 -7 9 -18 17 -25 17 -6 0 -11 5 -11 10 0 6 0 13 0 18 0 4 6 7 13 7
6 0 18 8 25 18 8 10 19 17 25 16 24 -3 38 1 33 10 -3 5 -16 7 -28 3 -14 -3
-19 -2 -14 6 13 22 -11 12 -57 -23 -42 -32 -67 -43 -67 -30 0 15 32 65 47 74
10 6 12 11 6 11 -18 0 -63 -41 -63 -57 0 -24 -26 -25 -90 -3 -49 17 -86 21
-169 20 -58 0 -117 0 -131 1 -14 1 -35 -2 -47 -6 -17 -6 -23 -3 -23 8 0 9 7
20 17 25 14 9 14 11 -7 22 -32 17 -133 6 -183 -20 l-39 -21 -73 26 c-88 30
-107 31 -129 6 -10 -11 -24 -17 -32 -14 -8 3 -23 -2 -34 -12 -20 -18 -66 -12
-54 7 5 8 1 9 -12 3 -10 -5 -77 -10 -149 -10 -173 -2 -214 -20 -256 -114 -11
-25 -24 -48 -28 -51 -15 -10 -71 -107 -71 -124 0 -10 -4 -14 -10 -11 -6 3 -10
-5 -10 -19 0 -14 -5 -28 -11 -32 -6 -3 -9 -15 -6 -25 7 -27 -19 -94 -35 -92
-8 2 -24 -9 -37 -25 -69 -84 -120 -163 -126 -195 -4 -20 -9 -37 -12 -37 -19 0
-50 31 -98 99 -97 139 -108 190 -50 243 25 22 32 35 25 42 -8 8 -21 -1 -45
-29 -38 -44 -48 -41 -60 23 -7 36 15 82 39 82 7 0 21 9 32 21 14 16 26 19 52
14 55 -10 34 14 -36 42 -59 24 -63 24 -88 8 -14 -9 -32 -32 -40 -51 -8 -19
-31 -56 -51 -82 -62 -81 -87 -146 -86 -232 0 -94 18 -128 117 -225 85 -85 146
-127 215 -150 50 -16 61 -27 41 -40 -5 -3 -10 -13 -10 -22 0 -13 2 -13 16 -2
14 12 16 11 13 -5 -5 -23 -83 -65 -134 -71 -46 -6 -125 -54 -125 -76 0 -19
-22 -38 -72 -64 -21 -11 -38 -24 -38 -30 0 -18 -64 -53 -110 -60 -68 -11 -147
-56 -134 -77 3 -4 0 -7 -7 -6 -21 5 -59 -81 -52 -116 10 -56 22 -64 23 -15 0
34 8 57 29 90 16 24 27 47 24 53 -3 5 -1 6 5 2 6 -4 31 0 55 8 23 8 58 17 78
21 33 6 35 5 33 -22 0 -15 -2 -31 -4 -35 -1 -5 -3 -13 -4 -20 0 -6 -21 -22
-46 -35 -49 -25 -111 -87 -135 -136 -9 -18 -15 -56 -14 -96 0 -68 13 -120 21
-91 3 8 13 38 23 65 9 28 21 65 25 84 9 34 65 101 85 101 7 0 11 -17 10 -43
-3 -60 25 -92 80 -92 l40 0 -4 -101 c-2 -56 0 -111 4 -123 7 -23 43 -29 63 -9
10 10 20 4 47 -24 l35 -36 -21 -39 c-12 -21 -29 -49 -38 -63 -9 -14 -21 -38
-27 -55 -6 -16 -15 -38 -19 -47 -14 -35 11 -17 38 27 16 25 31 45 34 45 11 0
-11 -69 -43 -137 -37 -77 -38 -83 -25 -83 4 0 14 20 21 45 7 25 17 48 22 51
11 7 1 -129 -13 -173 -11 -35 -5 -69 17 -91 12 -11 14 -9 14 15 0 20 3 24 9
14 6 -10 11 -7 17 13 l9 27 27 -28 c22 -23 27 -39 29 -85 1 -32 6 -58 11 -58
4 0 8 -8 8 -17 0 -16 -2 -16 -11 -3 -8 11 -9 6 -5 -20 4 -19 17 -44 30 -55 13
-11 33 -36 45 -57 30 -51 93 -105 132 -113 19 -4 39 -10 44 -14 6 -4 42 -20
80 -36 39 -15 75 -33 81 -39 10 -11 24 -54 59 -181 18 -67 73 -185 86 -185 5
0 9 -7 9 -15 0 -8 4 -15 8 -15 5 0 25 -16 45 -35 20 -19 43 -35 50 -35 8 0 17
-6 20 -14 3 -8 18 -23 32 -32 38 -25 42 -11 41 114 -1 106 -8 136 -68 322 -17
51 -18 190 -2 190 21 0 21 22 2 85 -11 35 -17 73 -13 91 4 26 2 32 -11 30 -11
-1 -17 8 -20 27 -1 15 -28 81 -60 145 -31 64 -61 126 -66 137 -12 28 -2 134
15 154 13 16 28 61 44 136 6 28 14 41 28 43 14 2 16 0 7 -6 -9 -6 -1 -19 33
-50 25 -22 45 -46 45 -52 0 -7 6 -8 19 0 13 6 22 7 26 0 3 -5 25 -15 48 -21
23 -6 61 -20 85 -30 41 -19 45 -19 105 -3 66 18 152 57 162 74 3 5 3 10 -2 10
-88 1 -224 9 -232 15 -13 7 -14 35 -2 53 6 11 16 8 46 -12 21 -14 49 -26 62
-26 34 0 80 49 88 93 4 21 10 37 14 37 3 0 21 -9 39 -20 21 -13 32 -28 32 -42
0 -19 2 -20 10 -8 9 13 11 13 20 0 7 -11 5 -18 -7 -27 -9 -7 -20 -10 -24 -7
-5 3 -9 1 -9 -5 0 -15 57 -23 80 -11 11 6 23 24 27 41 8 40 23 47 45 19 10
-12 21 -21 24 -18 2 3 9 32 14 64 5 32 19 71 31 87 20 27 20 30 4 47 -10 11
-42 26 -72 35 -47 14 -67 28 -128 91 -51 52 -79 74 -96 74 -14 0 -29 4 -34 9
-6 5 -74 11 -152 15 l-141 6 -20 -25 c-11 -14 -25 -25 -30 -25 -6 0 -34 -14
-63 -30 -28 -17 -54 -28 -57 -25 -4 3 -7 54 -8 113 -4 297 -6 322 -20 322 -17
0 -18 12 -2 28 8 8 12 50 13 120 0 97 2 110 25 142 13 19 30 41 36 47 7 7 27
35 45 63 18 27 36 50 40 50 5 0 23 12 41 28 44 36 73 52 98 52 12 0 46 19 76
42 33 24 72 45 97 49 79 15 102 22 109 34 5 8 22 10 55 5 38 -6 54 -3 87 14
35 19 48 21 91 14 28 -5 80 -10 118 -10 42 0 67 -5 67 -12 0 -10 51 -28 200
-72 25 -7 74 -18 109 -23 36 -6 69 -15 75 -21 5 -5 20 -10 32 -10 13 0 26 -4
29 -10 3 -5 13 -10 21 -10 22 0 74 -51 74 -73 0 -10 8 -21 19 -24 10 -2 24
-16 30 -29 9 -20 8 -24 -1 -18 -10 6 -10 5 -1 -7 7 -9 19 -42 26 -75 10 -45
18 -60 33 -62 19 -3 50 -52 33 -52 -5 0 -9 -4 -9 -10 0 -5 6 -7 13 -4 7 2 23
-5 35 -16 22 -21 30 -36 14 -26 -12 7 -13 -50 -2 -79 6 -15 4 -27 -3 -35 -9
-10 -9 -14 0 -17 21 -8 35 -81 37 -194 2 -110 1 -113 -36 -81 -11 9 -28 12
-45 9 -15 -3 -35 -1 -45 4 -10 6 -19 5 -23 -1 -3 -5 -34 -10 -68 -9 -151 2
-213 -20 -308 -108 -54 -50 -118 -96 -139 -98 -3 0 -22 -10 -42 -22 -41 -24
-48 -48 -24 -86 8 -12 20 -51 27 -87 7 -35 25 -100 41 -145 16 -44 32 -90 35
-102 3 -12 11 -24 19 -27 17 -6 11 28 -13 81 -8 17 -13 42 -11 55 3 24 6 25
105 31 48 3 84 15 55 18 -7 1 -16 2 -22 3 -10 1 -39 37 -40 49 0 4 7 7 15 7 8
0 15 4 15 10 0 10 69 60 82 60 5 0 8 -16 8 -36 0 -28 8 -44 34 -70 37 -37 62
-42 106 -19 18 9 31 11 35 5 3 -6 18 -10 33 -10 21 0 24 -2 12 -10 -14 -9 -84
-20 -153 -24 -19 -2 -31 -7 -29 -15 2 -9 -10 -10 -45 -5 -44 6 -47 6 -34 -9 7
-10 20 -17 29 -17 9 0 45 -10 80 -22 51 -17 68 -19 83 -10 21 14 90 19 107 8
6 -3 18 1 27 10 8 9 24 14 35 11 11 -3 23 -1 26 5 6 10 64 5 98 -8 11 -4 19 2
25 17 9 23 10 23 25 -13 9 -21 16 -53 16 -72 0 -19 4 -37 9 -41 12 -7 4 -104
-9 -120 -5 -6 -11 -20 -13 -31 -1 -10 -6 -25 -11 -32 -4 -7 -5 -19 -2 -27 3
-8 0 -15 -6 -15 -6 0 -8 -3 -5 -7 4 -3 -2 -12 -13 -20 -11 -8 -20 -20 -20 -27
0 -8 -7 -16 -15 -20 -8 -3 -15 -14 -15 -24 0 -11 -6 -25 -14 -31 -8 -7 -18
-25 -21 -41 -3 -16 -13 -31 -21 -34 -8 -3 -14 -17 -14 -31 0 -15 -5 -36 -12
-48 -7 -12 -13 -26 -14 -32 -2 -5 -5 -21 -8 -34 -3 -14 -10 -29 -16 -35 -5 -5
-10 -18 -10 -28 0 -10 -5 -17 -12 -15 -7 1 -17 -8 -23 -20 -5 -13 -18 -23 -27
-23 -11 0 -15 -5 -12 -15 4 -9 0 -15 -7 -15 -22 -1 -59 -66 -46 -79 9 -9 6
-13 -11 -17 -13 -4 -22 -14 -22 -25 0 -21 -3 -22 -79 -20 -35 1 -79 12 -124
32 -104 44 -141 50 -180 31 -39 -20 -170 -23 -189 -4 -14 14 -51 16 -76 3 -86
-46 -193 -95 -233 -107 -65 -20 -106 -54 -92 -79 6 -10 13 -13 17 -7 9 14 87
3 111 -17 33 -27 82 -51 104 -51 42 0 19 35 -34 53 -84 29 -41 53 90 50 239
-6 294 -10 311 -24 16 -12 17 -12 11 4 -4 11 -3 16 3 12 6 -3 16 -3 23 2 31
20 74 29 104 21 38 -10 35 -35 -6 -44 -14 -4 -39 -18 -56 -33 -81 -71 -85 -73
-236 -76 -78 -1 -142 1 -145 7 -7 12 -34 -10 -34 -28 0 -21 -49 -29 -94 -15
-23 7 -52 15 -66 17 -14 3 -32 8 -40 11 -8 3 -26 7 -39 9 -26 3 -54 24 -33 24
7 0 12 7 12 15 0 8 5 15 12 15 6 0 2 9 -11 21 -26 24 -37 20 -22 -9 16 -30 14
-35 -14 -30 -17 4 -25 1 -25 -8 0 -8 -9 -14 -20 -14 -11 0 -23 -6 -25 -12 -10
-24 -119 -14 -120 10 -1 12 -75 85 -81 80 -6 -7 17 -48 27 -48 4 0 5 -9 2 -20
-3 -10 4 -32 14 -47 11 -15 22 -38 25 -50 5 -19 3 -21 -11 -13 -44 23 37 -168
135 -322 24 -37 44 -72 44 -77 0 -5 16 -28 35 -51 19 -23 35 -46 35 -51 0 -16
3 -24 17 -38 8 -7 12 -19 9 -27 -3 -7 2 -18 10 -24 8 -7 14 -17 14 -22 0 -5
15 -30 32 -56 18 -26 32 -50 30 -54 -1 -4 8 -13 21 -19 25 -13 42 -37 42 -59
0 -8 14 -19 30 -24 30 -10 116 -66 101 -66 -5 0 -3 -7 4 -15 9 -11 10 -15 1
-15 -7 0 -11 -10 -9 -22 2 -14 14 -25 37 -33 19 -6 37 -17 39 -23 2 -7 15 -12
28 -12 13 0 24 -4 24 -10 0 -5 -7 -10 -15 -10 -8 0 -15 -4 -15 -10 0 -5 11
-10 24 -10 13 0 29 -7 36 -15 7 -9 21 -14 30 -13 9 2 19 -1 21 -7 2 -5 -4 -10
-14 -10 -31 0 -50 -45 -19 -45 15 -1 15 -2 -3 -16 -11 -8 -36 -14 -55 -13 -62
3 -68 1 -66 -27 1 -21 10 -30 49 -47 50 -22 64 -44 22 -33 -20 5 -25 3 -25
-13 0 -14 5 -19 15 -15 9 4 24 -3 35 -16 12 -14 33 -24 53 -25 17 -1 44 -5 59
-9 22 -7 32 -3 54 21 14 15 32 27 39 25 23 -5 102 35 102 52 0 9 -4 16 -9 16
-4 0 -8 -5 -8 -12 0 -6 -3 -8 -7 -4 -4 3 9 20 28 36 29 25 32 31 19 40 -13 9
-8 16 25 45 22 19 44 35 48 35 5 0 22 9 39 21 36 26 47 18 23 -17 -9 -15 -12
-23 -6 -20 6 4 11 2 11 -5 0 -6 -8 -9 -20 -6 -13 3 -20 0 -20 -9 0 -8 7 -14
15 -14 17 0 20 -16 4 -26 -6 -3 -9 -15 -6 -25 3 -10 1 -22 -4 -25 -5 -3 -7
-30 -5 -59 2 -30 0 -52 -5 -50 -15 10 -19 -13 -4 -25 12 -10 16 -9 21 4 3 9
10 14 14 11 4 -3 10 4 13 15 5 20 27 28 27 10 0 -5 -4 -10 -10 -10 -12 0 0
-63 14 -72 6 -4 18 -1 26 8 12 12 12 18 2 34 -15 24 -15 30 -1 30 6 0 26 16
45 35 18 19 38 35 43 35 6 0 29 18 52 40 32 30 38 40 24 40 -17 0 -17 1 0 20
10 11 26 20 36 20 10 0 21 5 24 11 4 5 19 9 33 7 22 -2 28 2 30 20 4 27 22 30
22 3 0 -11 5 -23 10 -26 6 -4 10 8 9 32 -3 82 0 103 16 97 8 -4 15 -2 15 4 0
6 -6 12 -12 15 -10 3 -10 7 1 20 8 10 11 27 7 41 -5 21 -3 23 17 19 27 -7 130
-105 163 -155 13 -21 36 -67 50 -103 25 -62 26 -73 20 -166 -4 -55 -11 -111
-16 -123 -11 -31 -191 -119 -386 -190 -164 -60 -375 -106 -573 -127 -198 -21
-594 3 -718 42 -35 11 -48 38 -128 264 -23 66 -68 188 -99 272 -52 141 -56
159 -56 237 0 61 6 99 20 136 22 57 10 67 -20 17 -11 -19 -32 -39 -46 -46 -15
-6 -50 -31 -78 -55 -30 -26 -70 -49 -96 -56 -72 -19 -296 -142 -432 -236 -43
-30 -80 -54 -84 -54 -17 0 -154 123 -271 243 -432 446 -697 1012 -779 1662
-24 189 -24 550 0 729 112 850 547 1570 1221 2020 137 92 412 226 575 280 138
46 372 98 515 114 127 15 369 13 505 -3z m-530 -475 c0 -19 -31 -23 -48 -6
-15 15 -14 16 16 16 18 0 32 -5 32 -10z m-95 -11 c11 -17 -1 -21 -15 -4 -8 9
-8 15 -2 15 6 0 14 -5 17 -11z m-1095 -189 c-20 -13 -53 -13 -45 0 3 6 18 10
33 10 21 0 24 -2 12 -10z m2776 -170 c24 -22 50 -40 58 -40 7 0 19 -7 26 -15
10 -12 9 -15 -4 -15 -10 0 -15 -4 -11 -9 3 -5 -5 -17 -17 -25 -25 -18 -19 -32
9 -18 13 7 26 6 43 -4 14 -7 33 -13 43 -14 11 0 21 -9 24 -21 3 -11 11 -18 18
-15 6 2 16 1 21 -2 21 -15 124 -140 124 -150 0 -13 -57 -5 -76 10 -6 4 -19 6
-28 2 -9 -3 -40 5 -69 19 -28 13 -65 27 -82 31 -34 8 -68 33 -77 57 -4 9 0 29
8 45 15 28 15 28 -6 9 -16 -14 -23 -16 -32 -7 -14 14 -32 16 -23 3 8 -15 -8
-20 -32 -10 -15 5 -23 17 -23 31 0 15 -18 38 -50 67 -41 34 -48 46 -39 57 6 8
18 14 25 14 7 0 28 9 46 20 49 29 75 25 124 -20z m-2942 -36 c3 -9 6 -25 6
-37 0 -12 9 -41 20 -65 16 -36 19 -56 13 -118 l-6 -75 -22 21 c-33 31 -65 103
-65 145 0 41 29 145 41 145 4 0 10 -7 13 -16z m2906 -164 c0 -5 -4 -10 -10
-10 -5 0 -10 5 -10 10 0 6 5 10 10 10 6 0 10 -4 10 -10z m-2740 -142 c0 -5 6
-8 13 -8 6 0 32 -14 57 -31 l45 -31 -42 5 c-23 3 -43 1 -45 -5 -5 -14 -83 15
-83 32 0 8 -10 24 -22 37 -18 17 -23 33 -23 70 l1 48 49 -55 c28 -30 50 -58
50 -62z m2825 52 c3 -6 -1 -7 -9 -4 -18 7 -21 14 -7 14 6 0 13 -4 16 -10z m70
-10 c8 -13 -15 -13 -35 0 -12 8 -11 10 7 10 12 0 25 -4 28 -10z m279 -272 c16
-32 15 -45 -2 -34 -14 8 -33 66 -22 66 5 0 16 -14 24 -32z m-3374 -358 c0 -5
-5 -10 -11 -10 -5 0 -7 5 -4 10 3 6 8 10 11 10 2 0 4 -4 4 -10z m-160 -183 c0
-2 -10 -12 -22 -23 l-23 -19 19 23 c18 21 26 27 26 19z m179 -29 c-5 -18 -9
-50 -9 -71 0 -36 -2 -38 -27 -35 -33 4 -34 21 -3 91 25 55 54 67 39 15z m2238
-234 c-3 -3 -12 -4 -19 -1 -8 3 -5 6 6 6 11 1 17 -2 13 -5z m-1341 -39 c18
-15 18 -16 -20 -50 -53 -47 -78 -47 -73 0 5 46 12 52 68 64 3 0 14 -6 25 -14z
m264 1 c0 -2 -9 -6 -20 -9 -11 -3 -18 -1 -14 4 5 9 34 13 34 5z m1031 -49
c-13 -13 -26 -3 -16 12 3 6 11 8 17 5 6 -4 6 -10 -1 -17z m-991 -27 c0 -5 -4
-10 -10 -10 -5 0 -10 5 -10 10 0 6 5 10 10 10 6 0 10 -4 10 -10z m2060 -185
c0 -8 -2 -15 -4 -15 -2 0 -6 7 -10 15 -3 8 -1 15 4 15 6 0 10 -7 10 -15z
m-340 -155 c0 -5 -4 -10 -10 -10 -5 0 -10 5 -10 10 0 6 5 10 10 10 6 0 10 -4
10 -10z m-2309 -40 c24 -13 24 -36 1 -75 -22 -37 -19 -57 12 -71 19 -9 25 -8
35 8 19 30 38 21 49 -24 14 -60 32 -147 32 -161 0 -6 -13 1 -28 16 -15 15 -33
27 -40 27 -29 0 0 -40 46 -64 17 -9 32 -22 32 -29 0 -6 9 -30 21 -52 19 -35
20 -45 10 -82 -12 -45 -14 -46 -94 -57 -45 -6 -72 17 -81 69 -4 18 -13 35 -20
38 -8 3 -17 19 -21 36 -4 20 -13 31 -23 31 -14 0 -14 2 -3 9 16 10 6 31 -14
31 -17 0 -29 17 -12 17 7 0 17 2 22 4 14 5 85 -74 85 -95 0 -9 5 -16 10 -16
18 0 10 37 -17 76 -14 21 -36 54 -49 71 -12 18 -27 56 -34 85 -6 29 -19 72
-27 95 -8 23 -13 47 -10 55 3 7 6 3 6 -10 1 -27 21 -20 21 8 0 10 4 30 10 44
10 28 45 35 81 16z m-450 -84 c4 -54 -11 -71 -28 -33 -8 17 -8 34 0 60 15 46
25 36 28 -27z m2764 1 c4 -12 1 -35 -4 -51 -6 -15 -11 -40 -11 -56 0 -18 -10
-38 -30 -56 -16 -16 -32 -41 -36 -57 -8 -37 -42 -51 -67 -28 -17 17 -17 19 12
50 17 18 31 37 31 43 0 5 15 25 34 44 28 29 35 44 34 74 -1 59 25 85 37 37z
m-32 -272 c-17 -50 -33 -67 -33 -35 0 31 28 78 47 80 1 0 -5 -20 -14 -45z
m-48 -33 c-8 -9 -25 20 -18 31 3 5 10 2 15 -7 6 -10 7 -20 3 -24z m-2312 -8
c29 -59 6 -72 -43 -24 -38 37 -39 60 -2 60 21 0 31 -8 45 -36z m1627 -533 c0
-28 -39 -54 -58 -39 -12 10 -10 16 12 35 33 28 46 29 46 4z m-885 -91 c3 -5 1
-10 -4 -10 -6 0 -11 5 -11 10 0 6 2 10 4 10 3 0 8 -4 11 -10z m585 -151 c25
-6 63 -20 85 -33 22 -12 56 -23 75 -24 57 -3 100 -31 100 -65 0 -16 -5 -38
-11 -50 -15 -29 -70 -78 -80 -72 -4 3 -24 -6 -45 -20 -22 -15 -45 -23 -55 -20
-10 3 -37 -3 -60 -14 -36 -17 -55 -20 -138 -15 -53 3 -115 5 -139 5 -47 -1
-152 42 -152 62 0 7 -15 19 -33 27 -39 18 -97 102 -97 141 0 25 4 29 28 30 15
1 36 3 47 5 11 2 58 7 105 10 47 4 99 13 115 22 56 29 156 33 255 11z"/>
<path d="M2567 5923 c-5 -7 -5 -17 -2 -23 3 -5 -1 -10 -9 -10 -9 0 -19 -12
-22 -27 -4 -16 -12 -31 -18 -35 -8 -5 -7 -8 1 -8 20 0 65 67 61 92 -2 16 -6
19 -11 11z"/>
<path d="M4677 5163 c-11 -10 -8 -20 7 -26 10 -4 12 0 9 14 -6 21 -7 22 -16
12z"/>
<path d="M2505 5140 c-3 -6 5 -10 19 -10 14 0 28 5 31 10 3 6 -5 10 -19 10
-14 0 -28 -4 -31 -10z"/>
<path d="M4196 3971 c-3 -4 3 -16 14 -26 12 -11 18 -25 15 -36 -3 -9 -1 -20 5
-24 6 -4 9 -21 6 -38 -4 -25 1 -39 24 -64 17 -18 32 -33 35 -33 27 0 -60 228
-87 230 -4 0 -9 -4 -12 -9z"/>
<path d="M4179 3659 c-20 -4 -53 -18 -73 -30 -21 -12 -67 -28 -102 -35 -57
-12 -68 -12 -87 1 -30 21 -47 19 -78 -11 -19 -18 -42 -28 -74 -32 l-47 -5 5
-39 c6 -45 37 -83 75 -93 14 -3 54 -1 89 6 56 11 67 11 99 -4 26 -13 48 -16
84 -11 39 5 55 2 82 -14 l33 -20 70 32 c83 39 105 66 105 134 0 45 -16 112
-26 112 -3 0 -18 -10 -33 -21 -33 -24 -51 -19 -51 17 0 26 -9 28 -71 13z"/>
<path d="M4160 2950 c0 -5 4 -10 9 -10 6 0 13 5 16 10 3 6 -1 10 -9 10 -9 0
-16 -4 -16 -10z"/>
<path d="M4780 1649 c0 -5 5 -7 10 -4 6 3 10 8 10 11 0 2 -4 4 -10 4 -5 0 -10
-5 -10 -11z"/>
<path d="M3898 1543 c6 -2 18 -2 25 0 6 3 1 5 -13 5 -14 0 -19 -2 -12 -5z"/>
<path d="M4170 1449 c-13 -8 -13 -10 0 -19 12 -8 9 -10 -12 -10 -28 0 -43 -13
-33 -30 4 -7 14 -6 28 2 12 7 28 11 34 10 8 -2 10 3 7 13 -4 10 0 15 12 16 15
0 15 2 4 6 -8 3 -17 10 -20 14 -3 4 -12 4 -20 -2z"/>
<path d="M4072 1423 c-17 -7 -5 -23 19 -23 10 0 19 7 19 15 0 15 -14 18 -38 8z"/>
<path d="M4083 1367 c-28 -12 -30 -27 -4 -27 11 0 23 -5 27 -12 5 -8 10 -7 18
4 6 8 18 17 26 20 9 3 4 8 -15 15 -20 7 -37 7 -52 0z"/>
<path d="M4085 1310 c3 -5 8 -10 11 -10 2 0 4 5 4 10 0 6 -5 10 -11 10 -5 0
-7 -4 -4 -10z"/>
<path d="M7480 4495 l0 -345 325 0 325 0 0 345 0 345 -35 0 -35 0 0 -310 0
-310 -110 0 -110 0 0 310 0 310 -35 0 -35 0 0 -310 0 -310 -105 0 -105 0 0
310 0 310 -40 0 -40 0 0 -345z"/>
<path d="M11730 4495 l0 -345 35 0 35 0 0 310 0 309 128 3 127 3 3 33 3 32
-165 0 -166 0 0 -345z"/>
<path d="M14980 4816 c0 -88 72 -138 154 -106 27 10 50 47 59 98 6 29 4 32
-17 32 -19 0 -26 -7 -31 -32 -4 -18 -14 -41 -23 -50 -35 -40 -92 -6 -92 54 0
23 -4 28 -25 28 -20 0 -25 -5 -25 -24z"/>
<path d="M15716 4778 c-2 -35 -9 -130 -15 -213 -10 -136 -31 -252 -60 -327 -9
-23 -17 -28 -46 -28 l-35 0 0 -105 0 -105 40 0 40 0 0 75 0 75 210 0 210 0 0
-75 0 -75 35 0 35 0 0 105 0 105 -35 0 -35 0 0 315 0 315 -169 0 -169 0 -6
-62z m264 -288 l0 -280 -135 0 c-74 0 -135 4 -135 9 0 5 6 26 14 48 23 66 45
220 52 366 l7 137 99 0 98 0 0 -280z"/>
<path d="M8350 4618 c-79 -41 -85 -58 -85 -228 0 -170 6 -187 85 -227 81 -42
186 -19 228 49 27 44 27 47 0 57 -18 6 -26 2 -43 -23 -28 -42 -82 -60 -132
-43 -50 17 -72 51 -79 125 l-7 62 143 0 142 0 -4 74 c-2 55 -9 82 -24 103 -26
36 -99 73 -144 73 -20 0 -56 -10 -80 -22z m163 -69 c21 -23 27 -39 27 -74 l0
-46 -107 3 -108 3 3 45 c5 58 17 78 55 96 45 20 96 9 130 -27z"/>
<path d="M9280 4618 c-79 -41 -85 -58 -85 -228 0 -170 6 -187 85 -227 81 -42
186 -19 228 49 27 44 27 47 0 57 -18 6 -26 2 -43 -23 -28 -42 -82 -60 -132
-43 -50 17 -72 51 -79 125 l-7 62 143 0 142 0 -4 74 c-2 55 -9 82 -24 103 -26
36 -99 73 -144 73 -20 0 -56 -10 -80 -22z m163 -69 c21 -23 27 -39 27 -74 l0
-46 -107 3 -108 3 3 45 c5 58 17 78 55 96 45 20 96 9 130 -27z"/>
<path d="M10677 4626 c-51 -19 -85 -52 -98 -96 -6 -20 -9 -90 -7 -162 4 -146
12 -166 89 -206 36 -19 55 -23 101 -19 75 7 118 32 146 87 19 38 22 60 22 160
0 100 -3 122 -22 160 -13 25 -37 53 -55 63 -43 25 -128 31 -176 13z m141 -63
c35 -21 42 -53 42 -182 0 -104 -2 -121 -21 -144 -22 -29 -85 -51 -115 -41 -76
24 -89 53 -89 194 0 64 5 117 13 136 25 59 106 77 170 37z"/>
<path d="M12270 4625 c-19 -9 -42 -23 -52 -32 -17 -15 -18 -14 -18 10 0 23 -4
27 -30 27 l-30 0 0 -340 0 -340 30 0 30 0 0 120 c0 66 3 120 6 120 3 0 20 -10
37 -22 44 -31 143 -32 184 -2 58 44 68 75 68 224 0 148 -10 180 -67 223 -35
26 -113 32 -158 12z m105 -55 c40 -15 55 -64 55 -180 0 -109 -14 -161 -48
-179 -31 -16 -104 -13 -132 5 -47 32 -50 41 -50 174 0 118 1 128 23 147 47 43
97 54 152 33z"/>
<path d="M13557 4626 c-51 -19 -85 -52 -98 -96 -6 -20 -9 -90 -7 -162 4 -146
12 -166 89 -206 36 -19 55 -23 101 -19 75 7 118 32 146 87 19 38 22 60 22 160
0 100 -3 122 -22 160 -13 25 -37 53 -55 63 -43 25 -128 31 -176 13z m141 -63
c35 -21 42 -53 42 -182 0 -104 -2 -121 -20 -144 -49 -62 -163 -52 -192 17 -8
19 -13 72 -13 136 0 64 5 117 13 136 25 59 106 77 170 37z"/>
<path d="M14050 4625 c-19 -9 -42 -23 -52 -32 -17 -15 -18 -14 -18 10 0 23 -4
27 -30 27 l-30 0 0 -340 0 -340 30 0 30 0 0 120 c0 66 3 120 6 120 3 0 20 -10
37 -22 44 -31 143 -32 184 -2 58 44 68 75 68 224 0 148 -10 180 -67 223 -35
26 -113 32 -158 12z m105 -55 c40 -15 55 -64 55 -180 0 -109 -14 -161 -48
-179 -31 -16 -104 -13 -132 5 -47 32 -50 41 -50 174 0 118 1 128 23 147 47 43
97 54 152 33z"/>
<path d="M17850 4625 c-19 -9 -42 -23 -52 -32 -17 -15 -18 -14 -18 10 0 23 -4
27 -30 27 l-30 0 0 -340 0 -340 30 0 30 0 0 120 c0 66 3 120 6 120 3 0 20 -10
37 -22 44 -31 143 -32 184 -2 58 44 68 75 68 224 0 148 -10 180 -67 223 -35
26 -113 32 -158 12z m105 -55 c40 -15 55 -64 55 -180 0 -109 -14 -161 -48
-179 -31 -16 -104 -13 -132 5 -47 32 -50 41 -50 174 0 118 1 128 23 147 47 43
97 54 152 33z"/>
<path d="M18760 4618 c-79 -41 -85 -58 -85 -228 0 -170 6 -187 85 -227 81 -42
186 -19 228 49 27 44 27 47 0 57 -18 6 -26 2 -43 -23 -28 -42 -82 -60 -132
-43 -50 17 -72 51 -79 125 l-7 62 143 0 142 0 -4 74 c-2 55 -9 82 -24 103 -26
36 -99 73 -144 73 -20 0 -56 -10 -80 -22z m163 -69 c21 -23 27 -39 27 -74 l0
-46 -107 3 -108 3 3 45 c5 58 17 78 55 96 45 20 96 9 130 -27z"/>
<path d="M8776 4568 c-3 -35 -8 -115 -12 -178 -8 -136 -21 -177 -61 -185 -49
-11 -55 -15 -51 -32 4 -24 58 -29 97 -8 60 30 61 33 87 343 l6 62 79 0 79 0 0
-210 0 -210 35 0 35 0 0 240 0 240 -144 0 -144 0 -6 -62z"/>
<path d="M9640 4390 l0 -240 30 0 30 0 0 110 0 110 115 0 115 0 0 -110 0 -110
35 0 35 0 0 240 0 240 -35 0 -35 0 0 -105 0 -106 -112 3 -113 3 -3 103 -3 102
-29 0 -30 0 0 -240z"/>
<path d="M10140 4390 l0 -240 30 0 30 0 0 111 0 110 42 -3 c42 -3 43 -4 93
-90 62 -109 74 -120 122 -122 32 -1 38 2 41 22 3 16 -2 22 -17 22 -23 0 -57
42 -94 115 -14 28 -34 58 -45 68 -20 18 -20 19 -2 37 11 11 31 43 46 72 34 69
52 88 81 88 18 0 23 5 23 25 0 21 -5 25 -30 25 -56 0 -85 -24 -129 -109 -43
-84 -62 -101 -105 -101 l-26 0 0 105 0 105 -30 0 -30 0 0 -240z"/>
<path d="M11040 4390 l0 -240 108 0 c129 0 173 11 206 51 20 23 26 42 26 78 0
56 -20 88 -69 108 -32 14 -34 16 -16 23 58 22 79 113 39 167 -29 40 -74 52
-191 52 l-103 1 0 -240z m210 181 c36 -10 54 -53 40 -95 -14 -42 -44 -56 -125
-56 l-65 0 0 80 0 80 63 -1 c34 -1 73 -4 87 -8z m44 -222 c19 -15 26 -30 26
-55 0 -72 -36 -94 -151 -94 l-69 0 0 85 0 85 84 0 c69 0 88 -4 110 -21z"/>
<path d="M12620 4389 l0 -240 32 3 c29 3 39 16 147 194 l116 192 3 -194 2
-194 30 0 30 0 0 240 0 240 -30 0 c-27 0 -36 -12 -147 -197 l-118 -197 -3 197
-2 197 -30 0 -30 0 0 -241z"/>
<path d="M13120 4390 l0 -240 30 0 30 0 0 210 0 210 105 0 105 0 0 30 0 30
-135 0 -135 0 0 -240z"/>
<path d="M14400 4389 l0 -240 32 3 c29 3 39 16 147 194 l116 192 3 -194 2
-194 30 0 30 0 0 240 0 240 -30 0 c-27 0 -36 -12 -147 -197 l-118 -197 -3 197
-2 197 -30 0 -30 0 0 -241z"/>
<path d="M14900 4389 l0 -240 32 3 c29 3 39 16 147 194 l116 192 3 -194 2
-194 30 0 30 0 0 240 0 240 -30 0 c-27 0 -36 -12 -147 -197 l-118 -197 -3 197
-2 197 -30 0 -30 0 0 -241z"/>
<path d="M16230 4391 l0 -241 30 0 30 0 2 175 3 175 70 -126 c55 -98 74 -124
89 -122 13 2 41 42 83 118 35 63 69 119 74 124 5 6 9 -57 9 -167 l0 -177 30 0
30 0 0 240 0 240 -32 0 c-32 0 -35 -5 -112 -145 -44 -80 -82 -145 -85 -145 -3
0 -40 65 -82 143 -72 132 -79 142 -108 145 l-31 3 0 -240z"/>
<path d="M16810 4389 l0 -240 32 3 c29 3 39 16 147 194 l116 192 3 -194 2
-194 30 0 30 0 0 240 0 240 -30 0 c-27 0 -36 -12 -147 -197 l-118 -197 -3 197
-2 197 -30 0 -30 0 0 -241z"/>
<path d="M17270 4600 l0 -30 75 0 75 0 0 -210 0 -210 30 0 30 0 0 210 0 210
75 0 75 0 0 30 0 30 -180 0 -180 0 0 -30z"/>
<path d="M18190 4389 l0 -240 32 3 c29 3 39 16 147 194 l116 192 3 -194 2
-194 30 0 30 0 0 240 0 240 -30 0 c-27 0 -36 -12 -147 -197 l-118 -197 -3 197
-2 197 -30 0 -30 0 0 -241z"/>
<path d="M19130 4390 l0 -240 108 0 c129 0 173 11 206 51 20 23 26 42 26 78 0
56 -20 88 -69 108 -32 14 -34 16 -16 23 58 22 79 113 39 167 -29 40 -74 52
-191 52 l-103 1 0 -240z m210 181 c36 -10 54 -53 40 -95 -14 -42 -44 -56 -125
-56 l-65 0 0 80 0 80 63 -1 c34 -1 73 -4 87 -8z m44 -222 c19 -15 26 -30 26
-55 0 -72 -36 -94 -151 -94 l-69 0 0 85 0 85 84 0 c69 0 88 -4 110 -21z"/>
<path d="M19570 4389 l0 -240 32 3 c29 3 39 16 147 194 l116 192 3 -194 2
-194 30 0 30 0 0 240 0 240 -30 0 c-27 0 -36 -12 -147 -197 l-118 -197 -3 197
-2 197 -30 0 -30 0 0 -241z"/>
<path d="M20070 4545 c0 -162 35 -200 183 -200 l87 0 0 -97 0 -98 35 0 35 0 0
240 0 240 -35 0 -35 0 0 -114 0 -113 -44 -6 c-65 -9 -114 2 -136 31 -17 20
-20 40 -20 113 l0 89 -35 0 -35 0 0 -85z"/>
<path d="M7392 3744 c-28 -19 -29 -57 -2 -84 20 -20 29 -20 7426 -18 7318 3
7406 3 7420 22 19 27 18 52 -6 76 -20 20 -33 20 -7418 20 -6679 0 -7400 -2
-7420 -16z"/>
<path d="M7586 3330 c-37 -12 -75 -47 -92 -87 -20 -45 -19 -311 0 -357 45
-107 229 -128 287 -32 24 40 24 52 -1 59 -15 4 -24 -2 -36 -24 -17 -34 -49
-49 -101 -49 -27 0 -43 8 -69 34 l-34 34 0 156 0 156 29 32 c26 29 35 33 81
33 46 0 55 -4 81 -33 47 -52 90 -31 48 23 -42 52 -123 76 -193 55z"/>
<path d="M12680 3064 l0 -275 32 3 c31 3 37 12 150 223 l118 220 0 -222 0
-223 30 0 30 0 0 276 0 275 -31 -3 c-30 -3 -37 -13 -148 -223 l-116 -220 -3
223 -2 222 -30 0 -30 0 0 -276z"/>
<path d="M13256 3330 c-37 -12 -75 -47 -92 -87 -20 -45 -19 -311 0 -357 45
-107 229 -128 287 -32 24 40 24 52 -1 59 -15 4 -24 -2 -36 -24 -17 -34 -49
-49 -101 -49 -27 0 -43 8 -69 34 l-34 34 0 156 0 156 29 32 c26 29 35 33 81
33 46 0 55 -4 81 -33 47 -52 90 -31 48 23 -42 52 -123 76 -193 55z"/>
<path d="M13510 3315 c0 -24 2 -25 70 -25 l70 0 0 -250 0 -250 30 0 30 0 2
248 3 247 68 3 c64 3 67 4 67 27 l0 25 -170 0 -170 0 0 -25z"/>
<path d="M14143 3319 c-43 -21 -90 -80 -78 -99 9 -15 45 -12 45 4 0 8 14 26
31 40 22 19 42 26 74 26 61 0 86 -24 92 -87 5 -45 2 -55 -20 -77 -20 -20 -36
-26 -72 -26 -41 0 -45 -2 -45 -25 0 -23 4 -25 40 -25 46 0 95 -21 104 -45 3
-9 6 -37 6 -62 0 -62 -40 -103 -100 -103 -49 0 -77 13 -106 47 -16 19 -27 23
-43 18 -21 -6 -21 -7 -4 -36 30 -51 78 -74 155 -74 52 0 73 5 95 21 82 60 85
209 5 245 l-29 13 32 31 c68 63 53 175 -29 214 -54 27 -100 26 -153 0z"/>
<path d="M14543 3319 c-43 -21 -90 -80 -78 -99 9 -15 45 -12 45 4 0 8 14 26
31 40 22 19 42 26 74 26 61 0 86 -24 92 -87 5 -45 2 -55 -20 -77 -20 -20 -36
-26 -72 -26 -41 0 -45 -2 -45 -25 0 -23 4 -25 40 -25 46 0 95 -21 104 -45 3
-9 6 -37 6 -62 0 -62 -40 -103 -100 -103 -49 0 -77 13 -106 47 -16 19 -27 23
-43 18 -21 -6 -21 -7 -4 -36 30 -51 78 -74 155 -74 52 0 73 5 95 21 82 60 85
209 5 245 l-29 13 32 31 c68 63 53 175 -29 214 -54 27 -100 26 -153 0z"/>
<path d="M7822 3148 c3 -20 10 -23 61 -26 l57 -3 0 -164 0 -165 30 0 30 0 0
165 0 165 55 0 c52 0 55 1 55 25 l0 25 -146 0 c-145 0 -145 0 -142 -22z"/>
<path d="M8153 3158 c3 -7 37 -89 76 -182 39 -93 71 -175 71 -182 0 -8 -7 -32
-17 -55 -12 -30 -25 -45 -50 -56 -41 -17 -43 -50 -3 -45 35 4 67 28 86 64 15
29 174 454 174 465 0 2 -12 3 -27 1 -25 -3 -30 -13 -79 -158 l-52 -155 -21 48
c-11 27 -21 50 -21 52 0 2 -18 52 -41 110 -39 101 -42 105 -71 105 -20 0 -28
-4 -25 -12z"/>
<path d="M8616 3148 c-2 -13 -9 -70 -14 -128 -13 -132 -29 -184 -60 -188 -21
-3 -22 -8 -22 -83 0 -78 0 -79 25 -79 24 0 25 3 25 60 l0 60 140 0 140 0 0
-60 c0 -57 1 -60 25 -60 25 0 25 1 25 79 0 79 0 80 -27 83 l-28 3 -3 168 -2
167 -110 0 c-106 0 -110 -1 -114 -22z m174 -168 l0 -150 -85 0 c-47 0 -85 3
-85 8 0 4 4 22 9 40 5 18 15 76 21 130 6 53 13 103 15 110 3 8 25 12 65 12
l60 0 0 -150z"/>
<path d="M9025 3156 c-61 -27 -70 -48 -73 -165 -3 -116 4 -140 51 -175 21 -15
43 -21 81 -21 63 0 96 16 120 56 16 27 16 30 1 35 -10 4 -27 -4 -46 -22 -23
-22 -39 -29 -70 -29 -56 0 -89 38 -89 101 l0 44 110 0 110 0 0 48 c0 107 -97
171 -195 128z m128 -57 c9 -12 17 -36 17 -55 l0 -34 -85 0 c-84 0 -85 0 -85
25 0 35 19 71 44 84 31 15 88 5 109 -20z"/>
<path d="M9310 2980 l0 -190 30 0 30 0 0 90 0 91 88 -3 87 -3 3 -87 c3 -86 3
-88 27 -88 l25 0 0 190 0 190 -25 0 c-25 0 -25 -1 -25 -80 l0 -80 -90 0 -90 0
0 80 0 80 -30 0 -30 0 0 -190z"/>
<path d="M9662 3148 c3 -20 10 -23 61 -26 l57 -3 0 -164 0 -165 30 0 30 0 0
165 0 165 55 0 c52 0 55 1 55 25 l0 25 -146 0 c-145 0 -145 0 -142 -22z"/>
<path d="M10200 2980 l0 -190 30 0 30 0 0 165 0 165 80 0 c79 0 80 0 80 25 l0
25 -110 0 -110 0 0 -190z"/>
<path d="M10480 2905 l0 -265 30 0 30 0 0 94 0 94 38 -20 c26 -13 50 -18 80
-15 80 9 112 62 112 187 0 134 -35 185 -125 185 -40 0 -61 -6 -84 -23 l-31
-23 0 26 c0 20 -5 25 -25 25 l-25 0 0 -265z m209 196 c26 -26 35 -77 28 -157
-6 -83 -24 -104 -86 -104 -26 0 -56 7 -69 16 -20 14 -22 23 -22 124 0 109 0
109 28 124 39 22 98 20 121 -3z"/>
<path d="M10833 3158 c3 -7 37 -89 76 -182 39 -93 71 -175 71 -182 0 -8 -7
-32 -17 -55 -12 -30 -25 -45 -50 -56 -41 -17 -43 -50 -3 -45 35 4 67 28 86 64
15 29 174 454 174 465 0 2 -12 3 -27 1 -25 -3 -30 -13 -79 -158 l-52 -155 -21
48 c-11 27 -21 50 -21 52 0 2 -18 52 -41 110 -39 101 -42 105 -71 105 -20 0
-28 -4 -25 -12z"/>
<path d="M11240 2980 l0 -190 30 0 30 0 0 170 0 171 83 -3 82 -3 3 -167 2
-168 25 0 25 0 0 190 0 190 -140 0 -140 0 0 -190z"/>
<path d="M11630 2980 l0 -190 30 0 30 0 0 170 0 171 83 -3 82 -3 3 -167 2
-168 25 0 25 0 0 190 0 190 -140 0 -140 0 0 -190z"/>
<path d="M12010 2980 l0 -190 93 0 c114 0 155 17 176 73 11 31 12 45 2 78 -15
51 -54 69 -146 69 l-65 0 0 80 0 80 -30 0 -30 0 0 -190z m203 -22 c9 -7 20
-27 23 -45 5 -26 1 -37 -19 -57 -22 -22 -35 -26 -87 -26 l-60 0 0 70 0 70 63
0 c35 0 71 -6 80 -12z"/>
<path d="M12330 2980 l0 -190 30 0 30 0 0 190 0 190 -30 0 -30 0 0 -190z"/>
<path d="M13850 3015 c0 -25 1 -25 85 -25 84 0 85 0 85 25 0 25 -1 25 -85 25
-84 0 -85 0 -85 -25z"/>
</g>
</svg>
